<?xml version="1.0" encoding="iso-8859-1"?>
<!-- Generator: Adobe Illustrator 19.0.0, SVG Export Plug-In . SVG Version: 6.00 Build 0)  -->
<svg version="1.1" id="Layer_1" xmlns="http://www.w3.org/2000/svg" xmlns:xlink="http://www.w3.org/1999/xlink" x="0px" y="0px"
	 viewBox="0 0 496.246 496.246" style="enable-background:new 0 0 496.246 496.246;" xml:space="preserve">
<path style="fill:#C17E52;" d="M357.037,249.06c0,2.859-2.332,5.207-5.207,5.207h-86.323c-2.875,0-5.207-2.339-5.207-5.207v-86.323
	c0-2.883,2.332-5.215,5.207-5.215h86.323c2.875,0,5.207,2.332,5.207,5.215V249.06z"/>
<path style="fill:#B56841;" d="M357.037,162.737v86.323c0,2.859-2.332,5.207-5.207,5.207h-86.323"/>
<path style="fill:#A86743;" d="M260.301,162.737c0-2.883,2.332-5.215,5.207-5.215h86.323c2.875,0,5.207,2.332,5.207,5.215v86.323
	c0,2.859-2.332,5.207-5.207,5.207"/>
<path style="fill:#C17E52;" d="M464.605,249.06c0,2.859-2.332,5.207-5.207,5.207h-86.323c-2.891,0-5.207-2.339-5.207-5.207v-86.323
	c0-2.883,2.316-5.215,5.207-5.215h86.323c2.875,0,5.207,2.332,5.207,5.215L464.605,249.06L464.605,249.06z"/>
<path style="fill:#B56841;" d="M464.605,162.737v86.323c0,2.859-2.332,5.207-5.207,5.207h-86.323"/>
<path style="fill:#A86743;" d="M367.868,162.737c0-2.883,2.316-5.215,5.207-5.215h86.323c2.875,0,5.207,2.332,5.207,5.215v86.323
	c0,2.859-2.332,5.207-5.207,5.207"/>
<path style="fill:#C17E52;" d="M410.829,142.643c0,2.859-2.347,5.215-5.215,5.215h-86.315c-2.891,0-5.222-2.347-5.222-5.215V56.328
	c0-2.891,2.332-5.222,5.222-5.222h86.315c2.867,0,5.215,2.332,5.215,5.222V142.643z"/>
<path style="fill:#B56841;" d="M410.829,56.328v86.315c0,2.859-2.347,5.215-5.215,5.215h-86.315"/>
<path style="fill:#A86743;" d="M314.077,56.328c0-2.891,2.332-5.222,5.222-5.222h86.315c2.867,0,5.215,2.332,5.215,5.222v86.315
	c0,2.859-2.347,5.215-5.215,5.215"/>
<path style="fill:#FFC41F;" d="M471.135,222.688H250.785v-90.23c0-15.328-12.446-27.758-27.758-27.758H93.475
	c-15.328,0-27.758,12.43-27.758,27.758L4.419,338.353c0,15.328,12.422,27.758,27.758,27.758h140.761h50.081h248.115
	c6.845,0,12.383-5.545,12.383-12.383V235.055C483.525,228.218,477.987,222.688,471.135,222.688z"/>
<path style="fill:#FFB000;" d="M18.188,292.084L4.419,338.353c0,15.328,12.422,27.758,27.758,27.758h140.761h50.081h248.115
	c6.845,0,12.383-5.545,12.383-12.383v-61.645H18.188z"/>
<g>
	<path style="fill:#528099;" d="M250.785,222.688v-90.23c0-0.268-0.071-0.504-0.071-0.764h-27.695
		c-15.328,0-20.047,12.422-20.047,27.758v35.47c0,15.328,12.438,27.758,27.758,27.758h20.055V222.688z"/>
	<path style="fill:#528099;" d="M153.624,131.694H65.788c0,0.26-0.071,0.496-0.071,0.764L38.991,222.24
		c1.434,0.228,2.867,0.449,4.372,0.449h110.261c15.321,0,27.758-12.43,27.758-27.758v-35.47
		C181.382,144.116,168.944,131.694,153.624,131.694z"/>
</g>
<ellipse style="fill:#C1E5F4;" cx="47.577" cy="299.402" rx="7.326" ry="25.821"/>
<path style="fill:#D9F5FF;" d="M47.584,325.246c-4.033,0-7.318-11.563-7.318-25.821c0-14.273,3.285-25.836,7.318-25.836"/>
<g>
	<path style="fill:#1D5777;" d="M108.197,222.688l71.712-71.719c-2.576-7.964-8.562-14.344-16.321-17.337l-89.049,89.056H108.197z"
		/>
	<path style="fill:#1D5777;" d="M125.424,222.688h28.199c15.321,0,27.758-12.43,27.758-27.758v-28.199L125.424,222.688z"/>
	<path style="fill:#1D5777;" d="M93.538,131.694h-27.75c0,0.26-0.071,0.496-0.071,0.764l-11.485,38.518L93.538,131.694z"/>
	<path style="fill:#1D5777;" d="M250.785,132.458c0-0.268-0.071-0.504-0.071-0.764h-4.23l-43.504,43.512v19.716
		c0,11.075,6.546,20.567,15.919,25.017l31.886-31.878L250.785,132.458L250.785,132.458z"/>
	<path style="fill:#1D5777;" d="M496.246,377.171c0,5.719-4.632,10.342-10.342,10.342H10.335C4.608,387.513,0,382.889,0,377.171
		v-35.604c0-5.719,4.608-10.342,10.335-10.342h475.561c5.719,0,10.342,4.624,10.342,10.342v35.604H496.246z"/>
</g>
<path style="fill:#1E759B;" d="M485.904,331.225H10.335C4.608,331.225,0,335.848,0,341.567v7.845
	c0,5.719,4.608,10.342,10.335,10.342h475.561c5.719,0,10.342-4.624,10.342-10.342v-7.845
	C496.246,335.848,491.615,331.225,485.904,331.225z"/>
<circle style="fill:#FFC41F;" cx="100.565" cy="393.815" r="34.903"/>
<path style="fill:#FFA522;" d="M100.557,358.888c19.275,0,34.911,15.636,34.911,34.926c0,19.267-15.628,34.895-34.911,34.895"/>
<path style="fill:#1A3D5B;" d="M100.557,445.141c-28.302,0-51.326-23.032-51.326-51.326c0-28.318,23.024-51.342,51.326-51.342
	c28.31,0,51.334,23.016,51.334,51.342C151.883,422.101,128.859,445.141,100.557,445.141z M100.557,375.327
	c-10.185,0-18.464,8.294-18.464,18.487c0,10.177,8.279,18.471,18.464,18.471c10.193,0,18.495-8.294,18.495-18.471
	C119.044,383.622,110.75,375.327,100.557,375.327z"/>
<circle style="fill:#FFC41F;" cx="402.038" cy="393.807" r="34.903"/>
<path style="fill:#FFA522;" d="M377.328,369.12c13.635-13.619,35.745-13.619,49.365,0c13.635,13.627,13.619,35.738,0,49.365"/>
<path style="fill:#1A3D5B;" d="M438.319,430.104c-20.023,20.023-52.586,20.023-72.602,0c-20.023-20.023-20.023-52.563,0-72.586
	c20.015-20.031,52.578-20.031,72.602,0C458.327,377.533,458.327,410.088,438.319,430.104z M388.962,380.731
	c-7.223,7.207-7.223,18.928,0,26.136c7.2,7.207,18.92,7.207,26.12,0c7.207-7.207,7.207-18.928,0-26.136
	C407.883,373.532,396.162,373.532,388.962,380.731z"/>
<g>
</g>
<g>
</g>
<g>
</g>
<g>
</g>
<g>
</g>
<g>
</g>
<g>
</g>
<g>
</g>
<g>
</g>
<g>
</g>
<g>
</g>
<g>
</g>
<g>
</g>
<g>
</g>
<g>
</g>
</svg>
